# xmcd
# Copyright (C) 1995-1998 Ti Kan
#
# Track frame offsets:
#       182
#       10870
#       21755
#       31007
#       42007
#       51160
#       63477
#       73875
#       85000
#       94015
#
# Disc length: 1373 seconds
#
# Revision: 0
# Processed by: cddbd v1.5.2PL0 Copyright (c) Steve Scherf et al.
# Submitted via: CD-Import v1.0
#
DISCID=74055b0a
DTITLE=Everly Brothers - All-Time Greatest Hits
DYEAR=1990
DGENRE=
TTITLE0=Bye Bye Love
TTITLE1=All I Have To Do Is Dream
TTITLE2=Wake Up Little Susie
TTITLE3=Cathy's Clown
TTITLE4=When Will I Be Loved
TTITLE5=Let It Be Me
TTITLE6=Bird Dog
TTITLE7=(Til) I Kissed You
TTITLE8=Problems
TTITLE9=Crying In The Rain
EXTD=
EXTT0=
EXTT1=
EXTT2=
EXTT3=
EXTT4=
EXTT5=
EXTT6=
EXTT7=
EXTT8=
EXTT9=
PLAYORDER=
